<?xml version="1.0" encoding="UTF-8"?>
<svg id="Layer_2" data-name="Layer 2" xmlns="http://www.w3.org/2000/svg" viewBox="0 0 785.99 908.53">
  <defs>
    <style>
      .cls-1 {
        font-size: 16.3px;
      }

      .cls-1, .cls-2 {
        font-family: CascadiaMono-Regular, 'Cascadia Mono';
        font-variation-settings: 'wght' 400;
      }

      .cls-3 {
        fill: #bbbcbc;
      }

      .cls-2 {
        font-size: 9.4px;
      }

      .cls-4 {
        fill: #fdfdfd;
      }
    </style>
  </defs>
  <g id="Layer_1-2" data-name="Layer 1">
    <g>
      <path class="cls-3" d="M767.32,650.96c-10.29-8.5-56.68-10.83-63.05-18.3-.44-.51-5.32-11.03-5.48-11.92-.96-5.26.31-11.65-.29-17.11-3.25-29.35-38.91-28.17-45.64-51.81-2.07-7.26.08-16.25,1.77-23.56.82-3.55,3.87-7.46,2.71-11.31-.81-2.71-7.84-8.14-10.07-10.87-7.86-9.61-15.08-28.91-22.08-35.77-6.64-6.51-8.7-1.21-14.27,1.2-10.39,4.49-13.57,1.58-23.29,1.94-2.98.11-11.62,2.71-12.92,2.46-1.21-.23-8.2-12.69-8.36-14.25-.33-3.15,2.23-6.91,2.61-10.36.86-7.81-2-25.57,1.73-31.33,4.81-7.43,17.66-5.69,22.85-10.83,7.03-6.98-11.33-11.85-14.58-14.83-6.72-6.18-16.54-34.87-21.86-45.13-9.63-18.57-26.93-46.5-46.46-55.33-13.47-6.09-28.67-5.6-42.6-9.6-3.19-.92-21.01-7.77-21.65-9.71-.91-2.8,4.92-18.64,6.99-21.47,2.96-4.05,7.72-2.78,10.88-6.08,7.84-8.2,4.48-38.31,5.53-49.72,1.84-20.02,22.08-15.93,36.73-18.08,11.88-1.74,13.65-13.16,20.98-20.35,6.64-6.52,21.75-10.91,24.52-19.42,2.52-7.76.78-13.65,6.5-21.34,3.85-5.18,17.48-12.72,7.76-19.07-5.99-3.91-15.1-6.55-21.95-11.11-10.39-6.91-15.99-16.81-29.79-16.4-14.72.44-29.91,2-44.07-3.71-5.68-2.29-11.39-6.63-16.89-9.21-29.65-13.89-54.75-17.44-86.64-7.68-3.5,1.07-18.63,8.03-20.15,7.52-1.17-.39-1.06-1.27-1.41-2.12-3.01-7.19-1.01-16.96.92-24.3,2.47-9.39,14.22-29.36-3.17-31.73-25.49-3.47-81.02,29.04-106.07,39.94-8.11,3.53-30.97,8.9-32.57,18.75-1.36,8.38,3.98,13.75,6.92,20.82,7.95,19.09,13.33,41.9,4.23,61.68-9.44,20.54-30.36,17.13-48.61,21.87-11.41,2.96-23.44,8.71-33.97,11.25-16.08,3.88-35.17,6.22-51.73,4.82-5.31-.45-12-3.49-16.59-3.5-5.81-.02-1.59,6.14-.06,8.84,10.59,18.75,26.84,32.2,29.24,55.15,2.16,20.63-1.06,41.29,3.54,61.71,3.77,16.76,12.01,33.83,14.68,50.57,4.04,25.4-.93,80.9,9.79,100.7,2.66,4.91,7.41,9.84,10.31,14.92,4.45,7.79,6.97,16.95,11.14,24.54,2.29,4.17,4.67,4.58,7.17,7.63-1.15,6.97-1.91,13.83-3.8,20.67-1.73,6.29-6.68,15.57-7.42,21.36-.33,2.59.9,4.36.57,6.51-.34,2.14-3.81,7.35-4.78,10.09-1.63,4.62-2.52,11.01-4.21,14.93-3.17,7.34-15.84,10.5-16.16,18.72-.12,3,1.43,5.72.87,9.5-1.83,12.37-12.76,15.66-13.85,29.65-1.04,13.3,4.3,26.67,3.46,40-1.04,16.49-11.62,28.73-15.9,44.13-2.12,7.63-2.22,16.35-4.54,23.3-3.77,11.25-24.61,23.11-33.07,33.06-6.57,7.73-10.68,18.37-16.97,25.66-3.67,4.25-9.6,6.3-12.89,11.47-2.16,3.4-4.13,13.07-4.48,17.27-.94,11.12.88,28.68-1.26,38.76-.46,2.16-1.86,4.45-3.15,6.22-2.76,3.81-12.82,7.5-12.95,11.56-.18,5.93,12.6,7.4,16.7,10.03,3.44,2.21,6.57,7.76,11.37,10.58,16.94,9.96,24.46,3.37,39.76-3.2,16.42-7.05,48.54.68,67.38,1.33,7.4.25,28.3-.64,30.01-10.09.62-3.45-1.83-12.1,3.11-12.58,8.18,2.53,15.69,6.65,23.92,9.13,17.5,5.27,46.75,11.15,62.92.3,18.77-12.6.77-41,27.82-53.96,35.56-17.04,91.53-33.18,114.44-67.39.83-1.24.87-3.16,1.82-4.27,1.52-1.77,19.47-4.65,23.73-5.85,11.87-3.34,23.66-8.52,34.63-14.09,7.83-3.97,6.73-5.34,16.94-4.8,16.75.9,51.99,6.3,66.88,13.17,8.83,4.07,15.99,10.92,25.81,14.21,7.63,2.56,17.75,3.03,24.83,5.62,5.08,1.86,8.76,6.74,14.95,7.67,8.47,1.27,17.96-3.87,22.84-10.67,2.1-2.92,5.63-13.6,7.57-14.18,2.16-.65,10.16-.36,12.79-.08,9.39,1,24.59,8.25,33.11,6.81,2.18-.37,4.99-2.79,5.47-4.95,1.25-5.61-4.18-20.77-4.18-28.49,0-20.96,16.03-51.33,40.76-43.31,10.21,3.31,12.28,7.66,24.89,6.24,5.7-.64,11.55-4.64,17.06-3.39,0,0,14.11-.24,18.18-13.89,4.07-13.66-18.18-21.78-18.18-21.78ZM577.64,487.75c.3-2.96-1.88-5.26-1.71-8.15,11.05-4.45,25.03,1.25,35.56-4.04,2.38-1.19,5.07-4.58,7.55-4.71,2.82-.15,2.76,1.58,4.2,3.14,7.34,7.97,12.96,24.36,21.42,34.7,1.69,2.07,8.04,7.26,8.53,8.92.67,2.28-3.87,15.25-4.23,19.79-.58,7.15-.46,15.13,2.89,21.53,9.5,18.15,38.31,20.11,42.31,42.08,1.15,6.33.04,14.69,1.15,20.6.48,2.56,6.22,11.01,4.99,12.78-2.89.59-6.22,1.54-9.13,1.77-43.27,3.41-75.94-5.89-116.43,15.81-6.39,3.42-18.91,14.51-26.68,10.74-2.18-1.06-8.37-18.31-10.9-22.15-14.47-21.92-50.14-27.02-74.35-26.14-.39-1.51.62-1.74,1.29-2.61,6.86-8.9,16.31-17.48,23.88-25.92,2.87-3.19,8.86-12.51,11.75-14.15,2.26-1.28,11.96-1.69,16.15-2.99,12.93-4.03,19.06-13.17,28.78-20.81,4.46-3.51,14.63-7.5,17.33-11.38,1.92-2.75,1.25-4.79,2.56-7.01,3.22-5.46,22.3-15.12,16.48-24.23-1.41-2.21-6.16-3.61-6.84-7.07-1.26-6.33,3.06-6.67,3.45-10.5ZM371.46,644.87c-4.79-.46-10.58.63-15.23,0-24.71-3.36-30.52-23.8-44.77-37.89-19.32-19.11-27.68-.14-44.97,8.18-17.79,8.57-50.99,9.27-70.16,5.15-9.07-1.95-15.85-10.64-22.37-16.78-3.54-3.34-7.57-3.85-8.66-9.62-.34-1.81-1.32-13.38-.81-14.18.37-.57,8.93-1.37,12.07-4.89l5.64-12.63c.94,3.09,3.37,8.92,7.01,9.58,2.67.48,5.15-.85,7.76-.91,20.51-.47,45.94-1.4,65.73,3.07,14.97,3.39,29.96,6.75,45.02,9.79,17.2,3.48,58.03-.6,76.41-3.19,1.56-.22,3.16-.06,4.72-.08,1.7,9.2-4.32,14.89-7.73,22.29-5.7,12.4-14.52,28.52-9.68,42.09ZM203.49,685.38c-.33-2.24-2.83-7.6-3.87-10.05-7.01-16.54-16.14-32.43-23.2-49.01-1.98-4.65-7.96-17.86-8.55-21.9-.08-.52-.23-1.43.44-1.31,7.54,5.43,14.8,15.64,23.45,19.18,10.52,4.29,39.58,4.44,51.36,3.43,7.59-.65,14.79-3.81,22.2-5.21,1.76,11.48.31,21.18-2.01,32.36-5.87,28.28-16.5,43.76,5.52,69.01,1.48,1.7,5.49,3.95,6.44,5.7,1.4,2.57,6.58,17.75,7.06,20.78,1.47,9.25.5,13.54-9.59,14-6.03.27-8.7-1.73-13.43-4.9-9.07-6.07-40.6-32.71-46.02-40.98-2.02-3.08-9.91-17.22-10.42-20.07-.65-3.61,1.23-6.99.63-11.03ZM278.63,726.02c-2.24-.91-10.39-9.89-12.12-12.31-17.55-24.6,1.6-51.52,3.15-77.99.21-3.58-1.77-15.93-1.33-16.92.76-1.73,22.4-15.77,26.12-16.59,1.69-.08,3.37-.12,5.04.23,9.19,1.91,21.01,23.87,27.91,30.81,4.57,4.6,11.76,8.88,17.71,11.44,1.84.79,5.71.77,6.29,2.46.57,1.67-5.3,13.23-6.45,16-1.44,3.45-2.13,7.83-3.75,11.04-6.59,13-35.8,39.81-48.62,47.09-2.5,1.42-11.61,5.69-13.94,4.75ZM224.46,517.37c-.13-4.82-2.49-16.04-1.78-19.94.37-2.01,2.42-2.89,3.09-4.78,1.11-3.16.85-8,1.65-11.4,5.01-21.11,15.95-22.88,28.29-36.96,7.44-8.49,20.32-33.98,30.43-36.56,5.2-1.33,10.65-1.11,16.18-2.96,4.98-1.67,9.17-5.15,13.73-7.15,17.49-7.69,36.97-3.74,55.4-6.79.82.76-7.94,17.69-8.49,20.65-1.96,10.53-.27,24.19-2.03,35.39-6.65,42.43-30.19,59.81-69.51,70.56-15.82,4.32-46.03,13.29-61.35,11.74-9.84-.99-5.41-4.11-5.62-11.79ZM219.2,494.36l-49.66-8.39c-.64-1.33-.73-2.74-.83-4.19-.95-13.27-1.77-45.25,5.09-55.89,7.02-10.89,18.04-11.75,23.67-18.09,2.67-3.01,4.59-11.04,6.62-15.13,5.13-10.32,12.75-18.97,21.19-26.66,11.7-10.65,30.92-20.86,34.61-37.6.91-4.14.53-20.22,2.14-21.79,20.86-7.23,43.54-13.44,63.33-23.23,6.35-3.14,11.68-6.02,16.48-11.36,3.11-3.46,6.37-12.37,12.21-9.56,5.21,2.51,5.02,27.36,7.66,34.12,3.07,7.89,12.66,14.64,21.05,12.45-1.23,6.38-2.05,7.01-7.21,9.59-2.44,1.22-1.76.58-3.89,1.39-15.16,5.78,1.82,15.89,5.75,22.64,4.02,6.91,3.83,28.57.31,35.72-7.12,14.45-23.95,9.86-37.14,10.71-7.14.46-16.34,1.44-22.97,4-4.96,1.91-10.31,6.36-15.29,8.2-6.13,2.26-12.89,1.88-18.73,3.89-10.8,3.73-21.18,25.65-28.7,34.81-12.35,15.04-27.64,19.8-31.24,41.84-.24,1.44.14,6.16-.12,6.41-.88.84-5.94-1.45-4.32,6.12ZM445.09,485.54c6.52,10.32,8.32,23.32,7.26,35.34-1.14,12.98-4.18,8.19-14.33,9.16-4.41.42-11.78,2.4-12.58,7.43-1.04,6.61,2.68,10.82-5.27,14.74-6.46,3.19-19.42,4.78-26.49,3.86-15.34-1.99-23.25-29.98-39.73-38.57-3.6-1.87-10.65-3.26-13.27-5.68-2.01-1.85.7-1.81,1.61-2.66,14.43-13.44,33.61-28.25,50.65-38.13,11.14-6.46,23.81-13.07,36.8-14.1-1.35,13.03,9.57,19.45,15.35,28.6ZM407.99,459.12c-6.72,2.84-16.01,8.17-22.29,12.09-7.45,4.64-14.94,10.52-21.98,15.85-6.8,5.14-18.56,16.89-24.99,20.24-4.27,2.23-10.74.55-6.34-3.73,10.82-10.53,17.76-14.73,24.31-29.63,8.86-20.18,7.01-35.85,8.64-56.61.82-10.37,8.86-22.09,12.76-31.79,8.81,1.33,15.04,8.73,20.3,15.32,7.07,8.85,15.73,22.14,18.07,33.26,1.42,6.74.15,14.73,6.3,19.79.03.78-12.8,4.38-14.78,5.22ZM231.92,533.61c5.73-.27,11.41-1.01,17.02-2.12,18.54-3.67,46.1-9.93,63.33-16.71,3.52-1.39,11.36-6.61,14.39-6.58,2.95.03,3.3,2.34,5.32,3.43,8.2,4.44,20.1,7.74,26.82,13.2,7.84,6.36,11.54,16.38,17.88,23.88,2.31,2.73,6.74,5.62,8.41,7.68,2.16,2.67,8.22,18.42,4.67,21.13-5.57.24-11.42-.09-17,.36-16.96,1.38-43.5,5.31-59.95,3.37-5.42-.64-11.42-3.87-16.84-4.91-10.96-2.09-20.58-2.92-32.04-5.37-21.77-4.66-42.12-3.67-64.32-3.55-2.82-.21-2.68-3.92-1.72-6.08,1.41-3.15,13.57-4.95,17.54-6.81,4.56-2.13,9.89-6.75,12.29-11.2,1.16-2.15,2.92-9.33,4.18-9.74ZM381.28,610.75c3.5-7.63,9.58-15.46,10.97-23.84.37-2.25-.26-4.71.13-6.83.35-1.93,2.21-3.03,2.55-5.31.91-6.04-4.03-10.22-4.32-16.03,7.71,3.58,30.41-.58,35.68-6.52,4.69-5.3,1.02-12.64,3.39-15.75,2.06-2.7,17.97-4.14,20.14-2.58.64.46,1.7,6.37,4.74,9.18,5,4.63,15.01,5.94,17.61,8.06.64.52,2.79,5.94,4.66,7.96,4.95,5.32,11.47,7.48,17.85,10.01.62.25,1.8-.2,1.19,1.37-.37.95-7.78,10.19-9.11,11.77-6.85,8.12-15.4,15.71-22.17,23.94-2.1,2.54-5.45,8.89-7,10.4-.82.8-12.02,4.97-15.04,6.71-3.41,1.96-8.03,6.71-10.4,7.91-5.23,2.64-12.82,2.24-17.96,4.63-9.27,4.3-8.62,13-21.51,14.16-29.07,2.62-18.9-22.85-11.39-39.23ZM573.25,483.53c1.26,6.87-4.6,9.01-2.17,16.96,2.05,6.69,11.91,3.18,4.23,14.53-3.35,4.94-11.28,8.95-13.74,12.41-1.63,2.29-1.33,6.2-2.65,7.79-.9,1.08-11.18,6.2-13.73,8.02-8.95,6.39-15.46,15.66-25.83,20.28-12.16,5.43-27.52,3.93-37.82-4.81-3.89-3.3-5.04-8.34-7.83-10.44-4.12-3.08-16.87-5.03-19.14-10.44-1.99-4.75,1.76-17.12,1.83-23.18.11-10.08-3.36-23.04-8.91-31.51-3.45-5.27-9.36-9.84-12.08-15.76-6.38-13.89,1.03-10.44,10.68-13.67,5.53-1.85,11.91-5.18,16.64-8.59,2.22-1.6,4.55-5.31,6.99-6.06,8.29-2.56,31.48,3.91,40.52,6.56,7.71,2.26,16.41,5.34,23.9,8.29,5.4,2.13,14.14,7.71,19.1,8.74,2.61.54,9.47-.03,10.35.53.95.6,9.41,19.02,9.65,20.35ZM456.75,284.22c22.16,8.86,45.47,5.1,64.36,20.9,13.12,10.97,24.95,30.31,32.8,45.5,6.36,12.29,14.08,38.48,23.16,46.87,3.45,3.19,8.2,4.02,11.64,6.2,6.78,4.31-6.71,5.46-8.73,6.46-1.25.62-1.2,2.17-2.09,2.43-1.41.42-3.13-.22-5.25.65-5.55,2.28-7.57,10.95-8.03,16.33-.49,5.73,3.37,27.95-3.44,29.66-7.31,1.84-24.09-8.2-31.66-11.12-11.83-4.57-48.81-15.53-59.97-12.69-1.81.46-11.2,8.44-14.85,10.38-5.84,3.1-14.4,6.57-21.01,6.85-16.59.71-11.13-12.15-14.43-23.04-3.5-11.55-19.88-35.38-29.61-42.61-3.21-2.39-6.5-2.97-9.43-5.39,4.3-9.6,4.75-24.47,2.45-34.62-1.96-8.64-8.1-11.36-12.47-17.98-3.96-6.01,8.03-6.4,12.17-10.34,6.14-5.85.65-13.51,12.64-21.29,14.46-9.38,32.79-11.87,48.44-18.63,3.29-.54,9.75,4.07,13.29,5.48ZM352.73,61.06c2.94-4.77,36.93-11.69,43.53-12.15,12.44-.87,26.22,1.52,37.98,5.5,19.41,6.58,33.69,19.88,55.07,21.49,12.54.94,29.11-3.29,39.25,3.82,6.72,4.71,14.05,12.22,21,16.16,2.44,1.39,15.38,6.13,15.85,7.51,1.02,2.97-8.15,10.59-10.37,13.82-2.31,3.37-4.01,6.69-4.97,10.69-1.86,7.78.97,10.24-6.06,15.69-7.33,5.68-14.42,7.82-21.14,15.4-6.48,7.31-5.83,13.74-16.38,15.81-16.22,3.19-37.54-1.03-40.08,20.82-.41,3.53-.78,8.49-.97,12.08-.37,7.03,1.29,33.56-4.39,37.37-3.1,2.08-7.37,1.32-10.35,5.49-5.5,7.68-5.87,17.5-10.03,25.46-17.1,7.29-39.32,9.81-53.23,22.9-5.15,4.84-3.82,9.5-14.14,5.26-11.52-4.74-9.19-18.63-10.75-28.4-1.55-9.7-6.93-25.16-18.07-13.29-6.53,6.96-6.14,10.06-15.92,15.4-19.62,10.72-43.97,16.58-64.96,24.21-1.28-1.69,11.53-18.19,13.21-21.14,8.67-15.23,5.61-23.61,7.74-39.25,1.86-13.7,12.75-12.74,21.41-18.61,8.18-5.53,2.59-19.9,4.79-27.4,1.11-3.8,5.93-1.56,7.52-2.49,1.89-1.11,2.52-10.74,1.45-12.91-1.55-3.16-13.52-.45-11.09-8.43,3.41-11.21,15.59-8.16,19.38-12.84,2.28-2.81,3.25-11.57,4.56-15.45,1.4-4.12,4.18-9.92,7.38-12.88,3.43-3.19,13.38-6.51,14.62-10.38,2.04-6.37-6.35-8.84-6.63-11.83-.25-2.64,3.57-4.57,4.89-7.3,4.91-10.2-3.93-15.43-3.12-21.31.59-4.32,10.8-6.02,10.43-10.52-.35-4.27-9.87-4.21-7.38-8.26ZM150.2,495.06c-3.07-.95-11.43-22.99-14.06-27.69-4.59-8.2-12.03-15.75-14.13-25.02-5.73-25.28-2.27-58.26-5.57-84.91-2.79-22.56-14.23-43.46-17.19-65.46-2.84-21.07,1.82-43.19-4-63.86-4.05-14.38-20.05-33.16-28.55-46.16-.5-.76-1.11-2.02-.61-2.54,1.26-1.32,2.94,1.55,3.86,1.81,25.2,7.06,59.22-.74,83.59-8.76,4.76-1.57,9.47-4.57,14.3-5.71,12.2-2.9,23.58-1.86,35.75-7.75,27.39-13.26,22.52-53.91,12.76-77.22-2.72-6.49-12.32-19.2-6.44-25.65,4.24-4.64,28.39-12.38,35.99-15.78,25.56-11.41,57.04-30.9,84.5-35.57,3.26-.55,15.09-1.77,17.16.6,3.92,4.49-2.57,19.45-4.26,24.94-.83,2.71-2.72,6.78-3.05,10.4-1.28,13.88,2.02,22.5,14.7,28.64.62,2.65-7.76,5.46-8.54,7.97-2.64,8.59,7.87,12.79,2.81,22.82-2.07,4.1-7.73,4.9-4.6,10.84,1.84,3.49,11.02,5.95,4.16,10.48-10.75,7.09-14.08,6.21-19.07,20.07-1.15,3.18-3.04,13.34-4.27,14.87-1.42,1.77-9.66,3.32-12.54,4.86-7.86,4.2-13.06,16.81-1.48,20.33,1.59.48,5.06.22,5.26.4.23.22.15,5.63-.12,6.42-.65,1.9-4.19,1.22-6.32,2.38-6.98,3.81-1.93,22.58-4.44,27.75-1.46,3.01-13.02,5.97-16.74,8.44-1.59,1.05-5.41,6.25-6.12,7.85-4.33,9.78-1.55,21.54-3.94,31.73-3.49,14.92-16.66,23.61-20.35,37.07-5.28,19.24,3.06,24.82-13.75,41.96-15.16,15.47-31.06,21.48-42.54,42.7-4.05,7.49-4.48,15.78-12.14,20.06-28.12,15.7-27.16,33.2-25.85,63.83.17,3.99,2.69,15.24,1.66,18.12-1.04,2.92-12.5,5.75-15.82,4.73ZM142.8,542.87c1.02-7.8,7.03-18.57,8.99-27.63,1.17-5.42,2.07-10.95,2.2-16.51,5.7,1.27,15.84-7.63,19.53-7.94,6.35-.54,24.32,4.94,32.33,6.05,4.69.65,9.49,1.16,14.24.99.35,9.09-.75,19.3.91,28.23.35,1.88,1.15,3.16,2.52,4.44,3.98,3.71,5.75-.08,2.8,7.94-2.23,6.07-5.04,8.9-10.66,11.96-5.23,2.85-16.01,4.25-19.03,7.07-2.39,2.23-2.25,7.87-3.46,8.71-.84.58-5.2.73-6,.23-2.54-1.56-2.47-15.05-5.94-16.24-4.61-1.58-20.21.52-26.74-.23-3.91-.45-12.3-2.39-11.68-7.07ZM119.17,590.51c.82-3.93,11.5-8.67,14.38-14.33,2.28-4.46,5.49-22.67,9.07-24.86,3.03-1.85,5.8.91,8.32,1.27,9.46,1.36,19.55.75,29.1.92.68.68-4.05,17.07-5.21,18.47-3.72,4.51-12.46,1.71-13.7,7.41-.76,3.49,2.23,19.51,1.51,20.22-5.7-1.08-41.31-1.95-43.41-4.44-.33-.39-.25-3.81-.07-4.67ZM162.43,879.12c-3.15,7.23,3.89,13.44-8.44,16.79-24.71,6.71-64.14-9.24-86.64.36-10.83,4.63-13.99,9.45-27.81,7.87-12.91-1.48-15.1-11.83-23.14-16.01-2.11-1.1-15.56-3.65-11.56-6.68,2.58-1.95,7.11-3.79,9.6-6.33,10.97-11.25,4.28-42.62,8.55-58.88,2.68-10.18,7.64-8.98,13.5-15.21,6.36-6.74,10.56-18.07,16.96-25.67,9.16-10.88,28.84-21.6,33.92-33.94,3.52-8.54,3.53-18.61,6.29-27.64,3.94-12.91,13.5-24.47,14.93-38.14,1.68-16.01-4.85-34.09-2.29-49.28.9-5.34,6.31-8.87,8.96-13.67,2.43-4.4,3.32-8.85,4.72-13.59l44.47,5.22c3.51,11.08,8.12,21.79,12.83,32.41,3.77,8.49,23.03,45.43,22.81,51.16-.13,3.55-2.47,4.63-1.21,8.99,2.06,7.16,13.09,19.66,13.85,25.36.22,1.68-.24,2.3-.69,3.73-3.26,10.52-12.97,29.11-21.8,35.66-5.21,3.86-14.6,6.84-18.61,10.54-8.3,7.68-.91,16.91,1.37,25.43,3.76,13.99,7.65,55.46,1.62,67.64-1.97,3.99-9.56,9.64-12.22,13.86ZM390.6,770.59c-12.47,16.59-50.94,35.65-70.29,44.56-13.02,5.99-43,14.88-51.01,24.68-10.87,13.3-2.93,37.99-16.76,45.88-17.46,9.96-53.61,1.99-71.6-5.52-3.98-1.66-6.55-2.89-9.58-6.07,4.88-3.95,8.37-9.58,9.35-15.87,2.46-15.81-.47-47.01-4.78-62.66-1.72-6.23-7.67-14.69-2.4-20.22,3.67-3.85,14.5-7.33,19.86-11.46,11.61-8.94,16.46-25.22,22.37-38.12,1.3-.2,2.14.55,3.12,1.2,9.7,6.35,21.89,20.52,32.1,28.36,8.69,6.67,17.91,14.54,29.4,8.56,5.19-2.7,6-6.02,5.86-11.62-.11-4.49-1.91-8.32-2.21-12.59,15.16,5.76,31.31,8.71,47.17,11.99,9.26,1.91,19.84,2.43,28.97,4.96,5.35,1.48,9.8,4.41,15.42,5.46,6.23,1.17,12.23.52,18.49.22,1.16,1.19-2.53,7-3.48,8.26ZM462.63,734.74c-.82,2.83-14.94,8.84-18.37,10.34-18.2,7.93-53.03,18.38-72.14,12.68-3.59-1.07-7.62-3.62-11.79-4.74-21.19-5.72-44.42-6.66-65.88-13.29-3.44-1.06-17.04-4.12-11.74-10.03.9-1.01,12.9-6.39,15.94-8.41,8.68-5.77,22.53-17.85,29.87-25.37,4.01-4.11,10.54-11.69,13.52-16.49,5.7-9.17,8.07-21.2,13.02-30.91.61-.37,12.45-.34,14.22-.15,1.5.16,15.88,4.65,16.58,5.17,1.9,1.43,4.16,10.05,6.63,13.38,7.4,9.98,29.97,13.23,41.82,17.34,8.63,3,31.75,12.02,37.21,18.47,6.16,7.27-4.17,14.72-6.88,20.99-1.86,4.31-1.03,7.63-2.02,11.03ZM604.59,774.1c-3.3-.87-6.93-4.95-10.23-6.3-5.94-2.41-14.83-3.03-21.24-4.86-15.24-4.34-25.77-14.34-41.01-19.02-21.18-6.5-43.97-7.3-65.78-10.35-1.7-13.19,19.2-22,6.51-33.92-8.12-7.62-30.46-16.85-41.35-20.42-15.79-5.18-37.96-4.88-40.89-25.66,11.8,1.79,15.38-8.79,22.87-13.24,5.84-3.46,13.15-3.01,18.8-5.56,4.57-2.06,9.62-7.59,14.99-10.25,10.75-5.32,18.69-7.34,30.77-6.63,15.1.89,35.06,5.71,47.07,15.14,12.6,9.89,11.98,21.78,20.33,31.44,12.15,14.06,8.98,18.03,15.82,32.9,2.66,5.78,7.12,8.93,9.6,13.89,4.07,8.13,4.43,17.67,11.58,24.97,6.33,6.46,16.03,4.03,23.7,7.63,3.88,1.82,9.48,6.69,13.37,9.25,3.24,2.13,6.68,4.42,10.35,5.77-2.58,11.2-13.83,18.21-25.24,15.21ZM745.1,686.47c-1.85-.09-3.7-.34-5.54-.79-6.71-1.65-12.67-5.84-19.5-6.86-13-1.94-25,8.23-31.24,19.79-7.98,14.77-9.62,32.83-4.45,48.8.89,2.74,1.85,6.11-.12,8.21-1.38,1.47-3.65,1.62-5.66,1.47-7.66-.59-14.76-4.06-22.12-6.24-7.36-2.19-15.91-2.92-22.22,1.47-1.3.91-2.57,2.05-4.14,2.23-1.12.13-2.22-.26-3.25-.71-7.51-3.35-12.75-10.75-20.46-13.59-6.63-2.45-14.67-1.37-20.19-5.79-2.49-2-4.1-4.87-5.61-7.68-4.88-9.09-9.43-18.35-13.63-27.77s-8.09-19.1-11.6-28.85c-.36-1-.78-1.67.17-2.38s2.04-1.25,3.03-1.87c2.12-1.3,4.25-2.6,6.39-3.87,4.27-2.55,8.59-5.03,13-7.34,8.71-4.57,17.81-8.5,27.38-10.89,19.02-4.75,38.95-3.28,58.56-2.99,10,.15,20.08-.04,29.89-2,3.64-.73,7.33-1.71,11.02-1.3,3.03.33,5.87,1.58,8.74,2.62,10.84,3.92,22.5,4.88,33.67,7.7,8.98,2.27,17.66,5.76,25.71,10.34,5.14,2.92,10.71,7.97,9.08,13.66-1.18,4.12-5.61,6.24-9.57,7.87-8.73,3.58-18.08,7.22-27.31,6.78Z"/>
      <path class="cls-4" d="M767.32,655.31c22.38,10.46,16.21,26.88,0,26.1-2.73-1-4.41,2.42-4.98,2.57-3.25.9-14.02,2.65-17.24,2.67-14.29.1-21.87-14.68-39.83-5.1-19.93,10.63-26.48,37.46-22.98,58.35,1.17,6.98,8.58,18.62-4.07,17.12-11.21-1.33-30.07-11.26-41.03-6.95-5.55,2.18-3.16,7.62-11.07,3.37-6.87-3.69-12.3-10.06-20.03-13.03-13.96-5.36-19.52,1.03-26.85-15.78-4.53-10.4-4.46-12.23-11-22.06-6.26-9.4-5.88-16.58-9.7-25.97-.79-1.95-4.39-6.66-4.41-7.83-.02-1.91,7.15-4.26,9.32-5.48,9.59-5.4,18.39-11.57,28.78-15.59,32-12.4,66.45-4.39,99.73-8.16,3.39-.38,9.69-2.75,12.21-2.49,3.1.31,10.54,3.88,14.41,4.81,16.38,3.94,33.78,5.33,48.75,13.45Z"/>
      <path class="cls-4" d="M343.28,30.33c-.83,2.71-2.72,6.78-3.05,10.4-1.28,13.88,2.02,22.5,14.7,28.64.62,2.65-7.76,5.46-8.54,7.97-2.64,8.59,7.87,12.79,2.81,22.82-2.07,4.1-7.73,4.9-4.6,10.84,1.84,3.49,11.02,5.95,4.16,10.48-10.75,7.09-14.08,6.21-19.07,20.07-1.15,3.18-3.04,13.34-4.27,14.87-1.42,1.77-9.66,3.32-12.54,4.86-7.86,4.2-13.06,16.81-1.48,20.33,1.59.48,5.06.22,5.26.4.23.22.15,5.63-.12,6.42-.65,1.9-4.19,1.22-6.32,2.38-6.98,3.81-1.93,22.58-4.44,27.75-1.46,3.01-13.02,5.97-16.74,8.44-1.59,1.05-5.41,6.25-6.12,7.85-4.33,9.78-1.55,21.54-3.94,31.73-3.49,14.92-16.66,23.61-20.35,37.07-5.28,19.24,3.06,24.82-13.75,41.96-15.16,15.47-31.06,21.48-42.54,42.7-4.05,7.49-4.48,15.78-12.14,20.06-28.12,15.7-27.16,33.2-25.85,63.83.17,3.99,2.69,15.24,1.66,18.12s-12.5,5.75-15.82,4.73c-3.07-.95-11.43-22.99-14.06-27.69-4.59-8.2-12.03-15.75-14.13-25.02-5.73-25.28-2.27-58.26-5.57-84.91-2.79-22.56-14.23-43.46-17.19-65.46-2.84-21.07,1.82-43.19-4-63.86-4.05-14.38-20.05-33.16-28.55-46.16-.5-.76-1.11-2.02-.61-2.54,1.26-1.32,2.94,1.55,3.86,1.81,25.2,7.06,59.22-.74,83.59-8.76,4.76-1.57,9.47-4.57,14.3-5.71,12.2-2.9,23.58-1.86,35.75-7.75,27.39-13.26,22.52-53.91,12.76-77.22-2.72-6.49-12.32-19.2-6.44-25.65,4.24-4.64,28.39-12.38,35.99-15.78,25.56-11.41,57.04-30.9,84.5-35.57,3.26-.55,15.09-1.77,17.16.6,3.92,4.49-2.57,19.45-4.26,24.94Z"/>
      <path class="cls-4" d="M528.56,79.72c6.72,4.71,14.05,12.22,21,16.16,2.44,1.39,15.38,6.13,15.85,7.51,1.02,2.97-8.15,10.59-10.37,13.82-2.31,3.37-4.01,6.69-4.97,10.69-1.86,7.78.97,10.24-6.06,15.69s-14.42,7.82-21.14,15.4c-6.48,7.31-5.83,13.74-16.38,15.81-16.22,3.19-37.54-1.03-40.08,20.82-.41,3.53-.78,8.49-.97,12.08-.37,7.03,1.29,33.56-4.39,37.37-3.1,2.08-7.37,1.32-10.35,5.49-5.5,7.68-5.87,17.5-10.03,25.46-17.1,7.29-39.32,9.81-53.23,22.9-5.15,4.84-3.82,9.5-14.14,5.26-11.52-4.74-9.19-18.63-10.75-28.4-1.55-9.7-6.93-25.16-18.07-13.29-6.53,6.96-6.14,10.06-15.92,15.4-19.62,10.72-43.97,16.58-64.96,24.21-1.28-1.69,11.53-18.19,13.21-21.14,8.67-15.23,5.61-23.61,7.74-39.25,1.86-13.7,12.75-12.74,21.41-18.61,8.18-5.53,2.59-19.9,4.79-27.4,1.11-3.81,5.93-1.56,7.52-2.49,1.89-1.11,2.52-10.74,1.45-12.91-1.55-3.16-13.52-.45-11.09-8.43,3.41-11.21,15.59-8.16,19.38-12.84,2.28-2.81,3.25-11.57,4.56-15.45,1.4-4.12,4.18-9.92,7.38-12.88,3.43-3.19,13.38-6.51,14.62-10.38,2.04-6.37-6.35-8.84-6.63-11.83-.25-2.64,3.57-4.57,4.89-7.3,4.91-10.2-3.93-15.43-3.12-21.31.59-4.32,10.8-6.02,10.43-10.52-.35-4.27-9.87-4.21-7.38-8.26,2.94-4.77,36.93-11.69,43.53-12.15,12.44-.87,26.22,1.52,37.98,5.5,19.41,6.58,33.69,19.88,55.07,21.49,12.54.94,29.11-3.29,39.25,3.82Z"/>
      <path class="cls-4" d="M171.65,772.19c-8.3,7.68-.91,16.91,1.37,25.43,3.76,13.99,7.65,55.46,1.63,67.64-1.97,3.99-9.56,9.64-12.22,13.86-3.15,7.23,3.89,13.44-8.44,16.79-24.71,6.71-64.14-9.24-86.64.36-10.83,4.63-13.99,9.45-27.81,7.87-12.91-1.48-15.1-11.83-23.14-16.01-2.11-1.1-15.56-3.65-11.56-6.68,2.58-1.95,7.11-3.79,9.6-6.33,10.97-11.25,4.28-42.62,8.55-58.88,2.68-10.18,7.64-8.98,13.5-15.21,6.36-6.74,10.56-18.07,16.96-25.67,9.16-10.88,28.84-21.6,33.92-33.94,3.52-8.54,3.53-18.61,6.29-27.64,3.94-12.91,13.5-24.47,14.93-38.14,1.68-16.01-4.85-34.09-2.29-49.28.9-5.34,6.31-8.87,8.96-13.67,2.43-4.4,3.32-8.85,4.72-13.59l44.47,5.22c3.51,11.08,8.12,21.79,12.83,32.41,3.77,8.49,23.03,45.43,22.81,51.16-.13,3.55-2.47,4.63-1.21,8.99,2.06,7.16,13.09,19.66,13.85,25.36.22,1.68-.24,2.3-.69,3.73-3.26,10.52-12.97,29.11-21.8,35.66-5.21,3.86-14.6,6.84-18.61,10.54Z"/>
      <path class="cls-4" d="M577.08,397.48c3.45,3.19,8.2,4.02,11.64,6.2,6.78,4.31-6.71,5.46-8.73,6.46-1.25.62-1.2,2.17-2.09,2.43-1.41.42-3.13-.22-5.25.65-5.55,2.28-7.57,10.95-8.03,16.33-.49,5.73,3.37,27.95-3.44,29.66-7.31,1.84-24.09-8.2-31.66-11.12-11.83-4.57-48.81-15.53-59.97-12.69-1.81.46-11.2,8.44-14.85,10.38-5.84,3.1-14.4,6.57-21.01,6.85-16.59.71-11.13-12.15-14.43-23.04-3.5-11.55-19.88-35.38-29.61-42.61-3.21-2.39-6.5-2.97-9.43-5.39,4.3-9.6,4.75-24.47,2.45-34.62-1.96-8.64-8.1-11.36-12.47-17.98-3.96-6.01,8.03-6.4,12.17-10.34,6.14-5.85.65-13.51,12.64-21.29,14.46-9.38,32.79-11.87,48.44-18.63,3.29-.54,9.75,4.07,13.29,5.48,22.16,8.86,45.47,5.1,64.36,20.9,13.12,10.97,24.95,30.31,32.8,45.5,6.36,12.29,14.08,38.48,23.16,46.87Z"/>
      <path class="cls-4" d="M623.25,473.99c7.34,7.97,12.96,24.36,21.42,34.7,1.69,2.07,8.04,7.26,8.53,8.92.67,2.28-3.87,15.25-4.23,19.79-.58,7.15-.46,15.13,2.89,21.53,9.5,18.15,38.31,20.11,42.31,42.08,1.15,6.33.04,14.69,1.15,20.6.48,2.56,6.22,11.01,4.99,12.78-2.89.59-6.22,1.54-9.13,1.77-43.27,3.41-75.94-5.89-116.43,15.81-6.39,3.42-18.91,14.51-26.68,10.74-2.18-1.06-8.37-18.31-10.9-22.15-14.47-21.92-50.14-27.02-74.35-26.14-.39-1.51.62-1.74,1.29-2.61,6.86-8.9,16.31-17.48,23.88-25.92,2.87-3.19,8.86-12.51,11.75-14.15,2.26-1.28,11.96-1.69,16.15-2.99,12.93-4.03,19.06-13.17,28.78-20.81,4.46-3.51,14.63-7.5,17.33-11.38,1.92-2.75,1.25-4.79,2.56-7.01,3.22-5.46,22.3-15.12,16.48-24.23-1.41-2.21-6.16-3.61-6.84-7.07-1.26-6.33,3.06-6.67,3.45-10.5.3-2.96-1.88-5.26-1.71-8.15,11.05-4.45,25.03,1.25,35.56-4.04,2.38-1.19,5.07-4.58,7.55-4.71,2.82-.15,2.76,1.58,4.2,3.14Z"/>
      <path class="cls-4" d="M382.76,309.04c-1.23,6.38-2.05,7.01-7.21,9.59-2.44,1.22-1.76.58-3.89,1.39-15.16,5.78,1.82,15.89,5.75,22.64,4.02,6.91,3.83,28.57.31,35.72-7.12,14.45-23.95,9.86-37.14,10.71-7.14.46-16.34,1.44-22.97,4-4.96,1.91-10.31,6.36-15.29,8.2-6.13,2.26-12.89,1.88-18.73,3.89-10.8,3.73-21.18,25.65-28.7,34.81-12.35,15.04-27.64,19.81-31.24,41.84-.24,1.44.14,6.16-.12,6.41-.88.84-5.94-1.45-4.32,6.12l-49.66-8.39c-.64-1.33-.73-2.74-.83-4.19-.95-13.27-1.77-45.25,5.09-55.89s18.04-11.75,23.67-18.09c2.67-3.01,4.59-11.04,6.62-15.13,5.13-10.32,12.75-18.97,21.19-26.66,11.7-10.65,30.92-20.86,34.61-37.6.91-4.14.53-20.22,2.14-21.79,20.86-7.23,43.54-13.44,63.33-23.23,6.35-3.14,11.68-6.02,16.48-11.36,3.11-3.46,6.37-12.37,12.21-9.56,5.21,2.51,5.02,27.36,7.66,34.12,3.07,7.89,12.66,14.64,21.05,12.45Z"/>
      <path class="cls-4" d="M218.88,726.99c9.7,6.35,21.89,20.52,32.1,28.36,8.69,6.67,17.91,14.54,29.4,8.56,5.19-2.7,6-6.02,5.86-11.62-.11-4.49-1.91-8.32-2.21-12.59,15.16,5.76,31.31,8.71,47.17,11.99,9.26,1.91,19.84,2.43,28.97,4.96,5.35,1.48,9.8,4.41,15.42,5.46,6.23,1.17,12.23.52,18.49.22,1.16,1.19-2.53,7-3.48,8.26-12.47,16.59-50.94,35.65-70.29,44.56-13.02,5.99-43,14.88-51.01,24.68-10.87,13.3-2.93,37.99-16.76,45.88-17.46,9.96-53.61,1.99-71.6-5.52-3.98-1.66-6.55-2.89-9.58-6.07,4.88-3.95,8.37-9.58,9.35-15.87,2.46-15.81-.47-47.01-4.78-62.66-1.72-6.23-7.67-14.69-2.4-20.22,3.67-3.85,14.5-7.33,19.86-11.46,11.61-8.94,16.46-25.22,22.37-38.12,1.3-.2,2.14.55,3.12,1.2Z"/>
      <path class="cls-4" d="M525.1,633.05c12.6,9.89,11.98,21.78,20.33,31.44,12.15,14.06,8.98,18.03,15.82,32.9,2.66,5.78,7.12,8.93,9.6,13.89,4.07,8.13,4.43,17.67,11.58,24.97,6.33,6.46,16.03,4.03,23.7,7.63,3.88,1.82,9.48,6.69,13.37,9.25,3.24,2.13,6.68,4.42,10.35,5.77-2.58,11.2-13.83,18.21-25.24,15.21-3.3-.87-6.93-4.95-10.23-6.3-5.94-2.41-14.83-3.03-21.24-4.86-15.24-4.34-25.77-14.34-41.01-19.02-21.18-6.5-43.97-7.3-65.78-10.35-1.7-13.19,19.2-22,6.51-33.92-8.12-7.62-30.46-16.85-41.35-20.42-15.79-5.18-37.96-4.88-40.89-25.66,11.8,1.79,15.38-8.79,22.87-13.24,5.84-3.46,13.15-3.01,18.8-5.56,4.57-2.06,9.62-7.59,14.99-10.25,10.75-5.32,18.69-7.34,30.77-6.63,15.1.89,35.06,5.71,47.07,15.14Z"/>
      <path class="cls-4" d="M371.45,390.83c.82.76-7.94,17.69-8.49,20.65-1.96,10.53-.27,24.19-2.03,35.39-6.65,42.43-30.19,59.81-69.51,70.56-15.82,4.32-46.03,13.29-61.35,11.74-9.84-.99-5.41-4.11-5.62-11.79-.13-4.82-2.49-16.04-1.78-19.94.37-2.01,2.42-2.89,3.09-4.78,1.11-3.16.85-8,1.65-11.4,5.01-21.11,15.95-22.88,28.29-36.96,7.44-8.49,20.32-33.98,30.43-36.56,5.2-1.33,10.65-1.11,16.18-2.96,4.98-1.67,9.17-5.15,13.73-7.15,17.49-7.69,36.97-3.74,55.4-6.79Z"/>
      <path class="cls-4" d="M563.59,463.18c.95.6,9.41,19.02,9.65,20.35,1.26,6.87-4.6,9.01-2.17,16.96,2.05,6.69,11.91,3.18,4.23,14.53-3.35,4.94-11.28,8.95-13.74,12.41-1.63,2.29-1.33,6.2-2.65,7.79-.9,1.08-11.18,6.2-13.73,8.02-8.95,6.39-15.46,15.66-25.83,20.28-12.16,5.43-27.52,3.93-37.82-4.81-3.89-3.3-5.04-8.34-7.83-10.44-4.12-3.08-16.87-5.03-19.14-10.44-1.99-4.75,1.76-17.12,1.83-23.18.11-10.08-3.36-23.04-8.91-31.51-3.45-5.27-9.36-9.84-12.08-15.76-6.38-13.89,1.03-10.44,10.68-13.67,5.53-1.85,11.91-5.18,16.64-8.59,2.22-1.6,4.55-5.31,6.99-6.06,8.29-2.56,31.48,3.91,40.52,6.56,7.71,2.26,16.41,5.34,23.9,8.29,5.4,2.13,14.14,7.71,19.1,8.74,2.61.54,9.47-.03,10.35.53Z"/>
      <path class="cls-4" d="M328.52,695.9c4.01-4.11,10.54-11.69,13.52-16.49,5.7-9.17,8.07-21.2,13.02-30.91.61-.37,12.45-.34,14.22-.15,1.5.16,15.88,4.65,16.58,5.17,1.9,1.43,4.16,10.05,6.63,13.38,7.4,9.98,29.97,13.23,41.82,17.34,8.63,3,31.75,12.02,37.21,18.47,6.16,7.27-4.17,14.72-6.88,20.99-1.86,4.31-1.03,7.63-2.02,11.03-.82,2.83-14.94,8.84-18.37,10.34-18.2,7.93-53.03,18.38-72.14,12.68-3.59-1.07-7.62-3.62-11.79-4.74-21.19-5.72-44.42-6.66-65.88-13.29-3.44-1.06-17.04-4.12-11.74-10.03.9-1.01,12.9-6.39,15.94-8.41,8.68-5.77,22.53-17.85,29.87-25.37Z"/>
      <path class="cls-4" d="M356.23,644.87c-24.71-3.36-30.52-23.8-44.77-37.89-19.32-19.11-27.68-.14-44.97,8.18-17.79,8.57-50.99,9.27-70.16,5.15-9.07-1.95-15.85-10.64-22.37-16.78-3.54-3.34-7.57-3.85-8.66-9.62-.34-1.81-1.32-13.38-.81-14.18.37-.57,8.93-1.37,12.07-4.89l5.64-12.63c.94,3.09,3.37,8.92,7.01,9.58,2.67.48,5.15-.85,7.76-.91,20.51-.47,45.94-1.4,65.73,3.07,14.97,3.39,29.96,6.75,45.02,9.79,17.2,3.48,58.03-.6,76.41-3.19,1.56-.22,3.16-.06,4.72-.08,1.7,9.2-4.32,14.89-7.73,22.29-5.7,12.4-14.52,28.52-9.68,42.09-4.79-.46-10.58.63-15.23,0Z"/>
      <path class="cls-4" d="M385.1,556.39c2.16,2.67,8.22,18.42,4.67,21.13-5.57.24-11.42-.09-17,.36-16.96,1.38-43.5,5.31-59.95,3.37-5.42-.64-11.42-3.87-16.84-4.91-10.96-2.09-20.58-2.92-32.04-5.37-21.77-4.66-42.12-3.67-64.32-3.55-2.82-.21-2.68-3.92-1.72-6.08,1.41-3.15,13.57-4.95,17.54-6.81,4.56-2.13,9.89-6.75,12.29-11.2,1.16-2.15,2.92-9.33,4.18-9.74,5.73-.27,11.41-1.01,17.02-2.12,18.54-3.67,46.1-9.93,63.33-16.71,3.52-1.39,11.36-6.61,14.39-6.58s3.3,2.34,5.32,3.43c8.2,4.44,20.1,7.74,26.82,13.2,7.84,6.36,11.54,16.38,17.88,23.88,2.31,2.73,6.74,5.62,8.41,7.68Z"/>
      <path class="cls-4" d="M265.31,620.51c1.76,11.48.31,21.18-2.01,32.36-5.87,28.28-16.5,43.76,5.52,69.01,1.48,1.7,5.49,3.95,6.44,5.7,1.4,2.57,6.58,17.75,7.06,20.78,1.47,9.25.5,13.54-9.59,14-6.03.27-8.7-1.73-13.43-4.9-9.07-6.07-40.6-32.71-46.02-40.98-2.02-3.08-9.91-17.22-10.42-20.07-.65-3.61,1.23-6.99.63-11.03-.33-2.24-2.83-7.6-3.87-10.05-7.01-16.54-16.14-32.43-23.2-49.01-1.98-4.65-7.96-17.86-8.55-21.9-.08-.52-.23-1.43.44-1.31,7.54,5.43,14.8,15.64,23.45,19.18,10.52,4.29,39.58,4.44,51.36,3.43,7.59-.65,14.79-3.81,22.2-5.21Z"/>
      <path class="cls-4" d="M472.16,551.13c.64.52,2.79,5.94,4.66,7.96,4.95,5.32,11.47,7.48,17.85,10.01.62.25,1.8-.2,1.19,1.37-.37.95-7.78,10.19-9.11,11.77-6.85,8.12-15.4,15.71-22.17,23.94-2.1,2.54-5.45,8.89-7,10.4-.82.8-12.02,4.97-15.04,6.71-3.41,1.96-8.03,6.71-10.4,7.91-5.23,2.64-12.82,2.24-17.96,4.63-9.27,4.3-8.62,13-21.51,14.16-29.07,2.62-18.9-22.85-11.39-39.23,3.5-7.63,9.58-15.46,10.97-23.84.37-2.25-.26-4.71.13-6.83.35-1.93,2.21-3.03,2.55-5.31.91-6.04-4.03-10.22-4.32-16.03,7.71,3.58,30.41-.58,35.68-6.52,4.69-5.3,1.02-12.64,3.39-15.75,2.06-2.7,17.97-4.14,20.14-2.58.64.46,1.7,6.37,4.74,9.18,5,4.63,15.01,5.94,17.61,8.06Z"/>
      <path class="cls-4" d="M327.39,633.25c4.57,4.6,11.76,8.88,17.71,11.44,1.84.79,5.71.77,6.29,2.46s-5.3,13.23-6.45,16c-1.44,3.45-2.13,7.83-3.75,11.04-6.59,13-35.8,39.81-48.62,47.09-2.5,1.42-11.61,5.69-13.94,4.75-2.24-.91-10.39-9.89-12.12-12.31-17.55-24.6,1.6-51.52,3.15-77.99.21-3.58-1.77-15.93-1.33-16.92.76-1.73,22.4-15.77,26.12-16.59,1.69-.08,3.37-.12,5.04.23,9.19,1.91,21.01,23.87,27.91,30.81Z"/>
      <path class="cls-4" d="M429.75,456.94c-1.35,13.03,9.57,19.45,15.35,28.6,6.52,10.32,8.32,23.32,7.26,35.34-1.14,12.98-4.18,8.19-14.33,9.16-4.41.42-11.78,2.4-12.58,7.43-1.04,6.61,2.68,10.82-5.27,14.74-6.46,3.19-19.42,4.78-26.49,3.86-15.34-1.99-23.25-29.98-39.73-38.57-3.6-1.87-10.65-3.26-13.27-5.68-2.01-1.85.7-1.81,1.61-2.66,14.43-13.44,33.61-28.25,50.65-38.13,11.14-6.46,23.81-13.07,36.8-14.1Z"/>
      <path class="cls-4" d="M220.08,497.83c.35,9.09-.75,19.3.91,28.23.35,1.88,1.15,3.16,2.52,4.44,3.98,3.71,5.75-.08,2.8,7.94-2.23,6.07-5.04,8.9-10.66,11.96-5.23,2.85-16.01,4.25-19.03,7.07-2.39,2.23-2.25,7.87-3.46,8.71-.84.58-5.2.73-6,.23-2.54-1.56-2.47-15.05-5.94-16.24-4.61-1.58-20.21.52-26.74-.23-3.91-.45-12.3-2.39-11.68-7.07,1.02-7.8,7.03-18.57,8.99-27.63,1.17-5.42,2.07-10.95,2.2-16.51,5.7,1.27,15.84-7.63,19.53-7.94,6.35-.54,24.32,4.94,32.33,6.05,4.69.65,9.49,1.16,14.24.99Z"/>
      <path class="cls-4" d="M385.7,471.2c-7.45,4.64-14.94,10.52-21.98,15.85-6.8,5.14-18.56,16.89-24.99,20.24-4.27,2.23-10.74.55-6.34-3.73,10.82-10.53,17.76-14.73,24.31-29.63,8.86-20.18,7.01-35.85,8.64-56.61.82-10.37,8.86-22.09,12.76-31.79,8.81,1.33,15.04,8.73,20.3,15.32,7.07,8.85,15.73,22.14,18.07,33.26,1.42,6.74.15,14.73,6.3,19.79.03.78-12.8,4.38-14.78,5.22-6.72,2.84-16.01,8.17-22.29,12.09Z"/>
      <path class="cls-4" d="M180.05,553.52c.68.68-4.05,17.07-5.21,18.47-3.72,4.51-12.46,1.71-13.7,7.41-.76,3.49,2.23,19.51,1.51,20.22-5.7-1.08-41.31-1.95-43.41-4.44-.33-.39-.25-3.81-.07-4.67.82-3.93,11.5-8.67,14.38-14.33,2.28-4.46,5.49-22.67,9.07-24.86,3.03-1.85,5.8.91,8.32,1.27,9.46,1.36,19.55.75,29.1.92Z"/>
    </g>
    <text class="cls-1" transform="translate(366.64 168.39)"><tspan x="0" y="0">AYAMELUM</tspan></text>
    <text class="cls-1" transform="translate(156.46 241.46)"><tspan x="0" y="0">ANAMBRA</tspan><tspan x="14.33" y="16">WEST</tspan></text>
    <text class="cls-1" transform="translate(243.33 372.07)"><tspan x="0" y="0">ANAMBRA</tspan><tspan x="14.33" y="16">EAST</tspan></text>
    <text class="cls-1" transform="translate(275.79 465.56)"><tspan x="0" y="0">OYI</tspan></text>
    <text class="cls-1" transform="translate(455.07 361.58)"><tspan x="0" y="0">AWKA</tspan><tspan x="-4.78" y="16">NORTH</tspan></text>
    <text class="cls-1" transform="translate(486.51 494.64)"><tspan x="0" y="0">AWKA</tspan><tspan x="-4.78" y="16">SOUTH</tspan></text>
    <text class="cls-1" transform="translate(560.15 578.56)"><tspan x="0" y="0">ORUMBA</tspan><tspan x="4.78" y="16">NORTH</tspan></text>
    <text class="cls-1" transform="translate(619.24 679.02)"><tspan x="0" y="0">ORUMBA</tspan><tspan x="4.78" y="16">SOUTH</tspan></text>
    <text class="cls-1" transform="translate(478.21 691.06)"><tspan x="0" y="0">AGUATA</tspan></text>
    <text class="cls-1" transform="translate(352.97 706.79)"><tspan x="0" y="0">NNEWI</tspan><tspan x="0" y="16">SOUTH</tspan></text>
    <text class="cls-1" transform="translate(217.43 805.68)"><tspan x="0" y="0">IHIALA</tspan></text>
    <text class="cls-1" transform="translate(88.87 777.79)"><tspan x="0" y="0">OGBARU</tspan></text>
    <text class="cls-1" transform="translate(188.18 651.21)"><tspan x="0" y="0">EKWUSIGO</tspan></text>
    <text class="cls-1" transform="translate(201.35 594.38)"><tspan x="0" y="0">IDEMILI</tspan><tspan x="9.55" y="16">SOUTH</tspan></text>
    <text class="cls-1" transform="translate(271.86 547.69)"><tspan x="0" y="0">IDEMILI</tspan><tspan x="9.55" y="16">NORTH</tspan></text>
    <text class="cls-1" transform="translate(152.85 521.55)"><tspan x="0" y="0">ONITSHA</tspan><tspan x="9.55" y="16">NORTH</tspan></text>
    <text class="cls-2" transform="translate(138.42 565.21)"><tspan x="0" y="0">ONITSHA</tspan><tspan x="5.51" y="8">SOUTH</tspan></text>
    <text class="cls-1" transform="translate(398.27 594.56)"><tspan x="0" y="0">ANIOCHA</tspan></text>
    <text class="cls-1" transform="translate(278.23 658.43)"><tspan x="0" y="0">NNEWI</tspan><tspan x="0" y="16">NORTH</tspan></text>
    <text class="cls-1" transform="translate(366.2 511.2)"><tspan x="0" y="0">NJIKOKA</tspan></text>
    <text class="cls-2" transform="translate(366.08 449.91)"><tspan x="0" y="0">DUNUKOFIA</tspan></text>
  </g>
</svg>